<?xml version="1.0" encoding="utf-8"?>
<!-- Generator: Adobe Illustrator 19.0.0, SVG Export Plug-In . SVG Version: 6.00 Build 0)  -->
<svg version="1.1" id="Layer_1" xmlns="http://www.w3.org/2000/svg" xmlns:xlink="http://www.w3.org/1999/xlink" x="0px" y="0px"
	 viewBox="-383 145 512 512" style="enable-background:new -383 145 512 512;" xml:space="preserve">
<style type="text/css">
	.st0{fill:#004A65;}
	.st1{fill:#73C6CA;}
</style>
<g>
	<path class="st0" d="M-128.9,651.8l-208-241.1c-4.8-5.6-4.8-13.8,0-19.4l208-241.1c2.8-3.3,6.9-5.2,11.2-5.2H71.6
		c5.8,0,11.1,3.4,13.5,8.7c2.4,5.3,1.5,11.5-2.3,15.9l-164,190.2c-5.4,6.2-14.7,6.9-20.9,1.5c-6.2-5.4-6.9-14.7-1.5-20.9L39.2,174.7
		h-150.1L-306,401l195.2,226.3H71.6c8.2,0,14.9,6.7,14.9,14.9c0,8.2-6.7,14.9-14.9,14.9h-189.3C-122,657-126.1,655.1-128.9,651.8z"
		/>
	<polygon class="st1" points="-230.6,291.6 -136.3,400.9 -136.3,401 71.6,642.1 -117.7,642.1 -325.7,401 	"/>
	<path class="st0" d="M-128.9,651.8l-208-241.1c-4.8-5.6-4.8-13.9,0-19.4l95.1-109.4c2.8-3.2,6.9-5.1,11.2-5.1c0,0,0,0,0,0
		c4.3,0,8.4,1.9,11.2,5.2l94.3,109.4c0.3,0.4,0.6,0.8,0.9,1.2l207,240c3.8,4.4,4.7,10.6,2.3,15.9c-2.4,5.3-7.7,8.7-13.5,8.7h-189.3
		C-122,657-126.1,655.1-128.9,651.8z M-147.6,410.7c-0.3-0.4-0.6-0.8-0.9-1.2l-82.1-95.2L-306,401l195.1,226.3H39.2L-147.6,410.7z"
		/>
</g>
</svg>
