<?xml version="1.0" encoding="utf-8"?>
<!-- Generator: Adobe Illustrator 19.0.0, SVG Export Plug-In . SVG Version: 6.00 Build 0)  -->
<svg version="1.1" id="Layer_1" xmlns="http://www.w3.org/2000/svg" xmlns:xlink="http://www.w3.org/1999/xlink" x="0px" y="0px"
	 viewBox="-383 145 512 512" style="enable-background:new -383 145 512 512;" xml:space="preserve">
<style type="text/css">
	.st0{fill:#004A65;}
	.st1{fill:#73C6CA;}
</style>
<path class="st0" d="M-136.3,657h-189.3c-8.2,0-14.9-6.6-14.9-14.9c0-8.2,6.7-14.9,14.9-14.9h182.5L52,401l-195.2-226.3h-150.1
	l142.8,165.6c5.4,6.2,4.7,15.6-1.5,20.9c-6.2,5.4-15.6,4.7-20.9-1.5l-164-190.2c-3.8-4.4-4.7-10.6-2.3-15.9
	c2.4-5.3,7.7-8.7,13.5-8.7h189.3c4.3,0,8.4,1.9,11.2,5.2l208,241.1c4.8,5.6,4.8,13.8,0,19.4l-208,241.1
	C-127.9,655.1-132,657-136.3,657z"/>
<polygon class="st1" points="71.7,401 -136.3,642.1 -325.7,642.1 -117.7,401 -117.7,400.9 -23.4,291.6 "/>
<path class="st0" d="M-136.3,657h-189.3c-5.8,0-11.1-3.4-13.5-8.7c-2.4-5.3-1.5-11.5,2.3-15.9l207-240c0.3-0.4,0.6-0.8,0.9-1.2
	l94.3-109.4c2.8-3.3,6.9-5.1,11.2-5.2c0,0,0,0,0,0c4.3,0,8.4,1.9,11.2,5.1l95.1,109.4c4.8,5.6,4.9,13.9,0,19.4l-208,241.1
	C-127.9,655.1-132,657-136.3,657z M-293.2,627.3h150.1L52,401l-75.4-86.8l-82.1,95.2c-0.3,0.4-0.6,0.8-0.9,1.2L-293.2,627.3z"/>
</svg>
